<?xml version="1.0" encoding="UTF-8"?>
<svg xmlns="http://www.w3.org/2000/svg" xmlns:xlink="http://www.w3.org/1999/xlink" viewBox="0 0 50 50" width="50px" height="50px">
<g id="surface41158532">
<rect x="0" y="0" width="50" height="50" style="fill:rgb(23.137255%,34.901962%,59.607846%);fill-opacity:1;stroke:none;"/>
<path style=" stroke:none;fill-rule:nonzero;fill:rgb(23.137255%,34.901962%,59.607846%);fill-opacity:1;" d="M 25 5.207031 C 14.070312 5.207031 5.207031 14.070312 5.207031 25 C 5.207031 35.929688 14.070312 44.792969 25 44.792969 C 35.929688 44.792969 44.792969 35.929688 44.792969 25 C 44.792969 14.070312 35.929688 5.207031 25 5.207031 Z M 25 5.207031 "/>
<path style=" stroke:none;fill-rule:nonzero;fill:rgb(100%,100%,100%);fill-opacity:1;" d="M 27.679688 30.246094 L 32.800781 30.246094 L 33.605469 25.042969 L 27.679688 25.042969 L 27.679688 22.199219 C 27.679688 20.039062 28.382812 18.121094 30.40625 18.121094 L 33.65625 18.121094 L 33.65625 13.582031 C 33.085938 13.503906 31.878906 13.335938 29.597656 13.335938 C 24.832031 13.335938 22.039062 15.851562 22.039062 21.582031 L 22.039062 25.042969 L 17.144531 25.042969 L 17.144531 30.246094 L 22.039062 30.246094 L 22.039062 44.546875 C 23.007812 44.691406 23.992188 44.792969 25 44.792969 C 25.910156 44.792969 26.800781 44.707031 27.679688 44.589844 Z M 27.679688 30.246094 "/>
</g>
</svg>
